<svg id="Layer_1" data-name="Layer 1" xmlns="http://www.w3.org/2000/svg" viewBox="0 0 83.14 104.94"><path d="M73.58,70.28a1.67,1.67,0,0,0,.57-.87l2.23-8.32,1.49-5.55,1.56-5.83,1.42-5.29,2.23-8.33a1.75,1.75,0,0,0-.31-1.51L56.14.65a1.72,1.72,0,0,0-2-.53l-40,16.07a1.74,1.74,0,0,0-1,1.15l-2.23,8.33L6.42,42.34,4.19,50.66a2.53,2.53,0,0,0-.06.53,38.09,38.09,0,0,0-2.87,7.39,36.82,36.82,0,1,0,72.32,11.7M77,45.68,65.33,32a1.7,1.7,0,0,0-2.4-.2,1.67,1.67,0,0,0-.19,2.4L75.91,49.68l-.48,1.82L63.77,37.81A1.71,1.71,0,1,0,61.17,40L74.35,55.51l-.7,2.61L44.14,42.31a2.24,2.24,0,0,0-.36-.14,2.44,2.44,0,0,0-.39-.06l-33.11-1L14,27.38,52,12.1,77.34,44.36ZM8.05,49.46l1.32-4.94,5.93.18L14,49.63Zm9.59-4.7,6.53.21-1.33,4.94-6.53-.2Zm8.87.27,6.52.18L31.7,50.16,25.19,50Zm8.86.26,6.53.19-1.33,5L34,50.23Zm8.69.85,5.76,3.09-1.33,4.94L42.73,51.1Zm7.82,4.2,5.76,3.08-1.33,4.94-5.75-3.09Zm7.82,4.18,5.74,3.07-1.33,5-5.73-3.09Zm7.79,4.18,5.25,2.81-1.32,4.95-5.25-2.83ZM54.24,3.77,79.57,36l-1.13,4.21L53.91,9a1.71,1.71,0,0,0-2-.53L15.07,23.26l1.13-4.21Zm-26,96.61A33.44,33.44,0,0,1,4.55,59.46a33.08,33.08,0,0,1,2.57-6.6l33.54,1L70.2,69.68a34.43,34.43,0,0,1-1.11,7.08,33.44,33.44,0,0,1-40.9,23.62" fill="#ffcc0a"/><path d="M73.58,70.28a1.67,1.67,0,0,0,.57-.87l2.23-8.32,1.49-5.55,1.56-5.83,1.42-5.29,2.23-8.33a1.75,1.75,0,0,0-.31-1.51L56.14.65a1.72,1.72,0,0,0-2-.53l-40,16.07a1.74,1.74,0,0,0-1,1.15l-2.23,8.33L6.42,42.34,4.19,50.66a2.53,2.53,0,0,0-.06.53,38.09,38.09,0,0,0-2.87,7.39,36.82,36.82,0,1,0,72.32,11.7M77,45.68,65.33,32a1.7,1.7,0,0,0-2.4-.2,1.67,1.67,0,0,0-.19,2.4L75.91,49.68l-.48,1.82L63.77,37.81A1.71,1.71,0,1,0,61.17,40L74.35,55.51l-.7,2.61L44.14,42.31a2.24,2.24,0,0,0-.36-.14,2.44,2.44,0,0,0-.39-.06l-33.11-1L14,27.38,52,12.1,77.34,44.36ZM8.05,49.46l1.32-4.94,5.93.18L14,49.63Zm9.59-4.7,6.53.21-1.33,4.94-6.53-.2Zm8.87.27,6.52.18L31.7,50.16,25.19,50Zm8.86.26,6.53.19-1.33,5L34,50.23Zm8.69.85,5.76,3.09-1.33,4.94L42.73,51.1Zm7.82,4.2,5.76,3.08-1.33,4.94-5.75-3.09Zm7.82,4.18,5.74,3.07-1.33,5-5.73-3.09Zm7.79,4.18,5.25,2.81-1.32,4.95-5.25-2.83ZM54.24,3.77,79.57,36l-1.13,4.21L53.91,9a1.71,1.71,0,0,0-2-.53L15.07,23.26l1.13-4.21Zm-26,96.61A33.44,33.44,0,0,1,4.55,59.46a33.08,33.08,0,0,1,2.57-6.6l33.54,1L70.2,69.68a34.43,34.43,0,0,1-1.11,7.08,33.44,33.44,0,0,1-40.9,23.62" fill="#ffcc0a"/><path d="M23.5,64.19a8.33,8.33,0,0,0-10.18,5.9,1.42,1.42,0,1,0,2.74.73,5.48,5.48,0,0,1,10.58,2.83,1.42,1.42,0,1,0,2.75.74,8.34,8.34,0,0,0-5.89-10.2" fill="#ffcc0a"/><path d="M50.32,71.38a8.34,8.34,0,0,0-10.2,5.89,1.42,1.42,0,1,0,2.75.73,5.48,5.48,0,1,1,10.58,2.84,1.43,1.43,0,1,0,2.76.74,8.36,8.36,0,0,0-5.89-10.2" fill="#ffcc0a"/></svg>