<?xml version="1.0" encoding="utf-8"?>
<!-- Generator: Adobe Illustrator 26.5.0, SVG Export Plug-In . SVG Version: 6.00 Build 0)  -->
<svg version="1.1" id="Layer_1" xmlns="http://www.w3.org/2000/svg" xmlns:xlink="http://www.w3.org/1999/xlink" x="0px" y="0px"
	 viewBox="0 0 226.93 166.04" style="enable-background:new 0 0 226.93 166.04;" xml:space="preserve">
<style type="text/css">
	.st0{fill:#E4282D;}
	.st1{fill:none;}
</style>
<g id="XMLID_71_">
	<g id="XMLID_97_">
		<polygon id="XMLID_140_" class="st0" points="119.91,113.33 112.53,113.33 105.16,113.33 105.16,117.01 112.53,117.01 
			119.91,117.01 		"/>
		<polygon id="XMLID_139_" class="st0" points="119.91,108.53 112.53,108.53 105.16,108.53 105.16,112.21 112.53,112.21 
			119.91,112.21 		"/>
		<rect id="XMLID_138_" x="122.58" y="88.49" class="st0" width="5.45" height="30"/>
		<rect id="XMLID_137_" x="159.69" y="110.58" class="st0" width="7.22" height="7.91"/>
		<polygon id="XMLID_136_" class="st0" points="128.03,83.45 112.53,83.45 97.04,83.45 97.04,86.09 112.53,86.09 128.03,86.09 		"/>
		<polygon id="XMLID_135_" class="st0" points="119.91,88.49 112.53,88.49 105.16,88.49 105.16,105.94 112.53,105.94 119.91,105.94 
					"/>
		<polygon id="XMLID_134_" class="st0" points="38.37,78.16 49.25,101.86 55.33,101.86 44.45,78.16 		"/>
		<rect id="XMLID_133_" x="58.15" y="110.58" class="st0" width="7.22" height="7.91"/>
		<path id="XMLID_132_" class="st0" d="M197.92,30.52c-4.89,14.9-10.31,29.44-17.71,42.58c7.1,0,14.19,0,21.3,0
			c10.43-23.06,21.14-45.94,25.43-73.1C219.67,14.86,209.95,24.95,197.92,30.52z"/>
		<polygon id="XMLID_131_" class="st0" points="75.32,105.87 72.29,88.73 65.06,88.73 68.09,105.87 		"/>
		<rect id="XMLID_130_" x="64.31" y="83.45" class="st0" width="7.22" height="2.64"/>
		<polygon id="XMLID_129_" class="st0" points="65.27,105.87 62.25,88.73 55.01,88.73 58.05,105.87 		"/>
		<rect id="XMLID_128_" x="54.26" y="83.45" class="st0" width="7.22" height="2.64"/>
		<rect id="XMLID_127_" x="153.53" y="83.45" class="st0" width="7.23" height="2.64"/>
		<rect id="XMLID_126_" x="129.54" y="110.58" class="st0" width="7.22" height="7.91"/>
		<polygon id="XMLID_125_" class="st0" points="139.91,88.73 132.68,88.73 129.65,105.87 136.88,105.87 		"/>
		<rect id="XMLID_124_" x="133.44" y="83.45" class="st0" width="7.23" height="2.64"/>
		<path id="XMLID_123_" class="st0" d="M167.17,28.88c0.01-0.01,0.03-0.04,0.04-0.05C167.2,28.82,167.18,28.84,167.17,28.88z"/>
		<polygon id="XMLID_122_" class="st0" points="149.96,88.73 142.73,88.73 139.7,105.87 146.93,105.87 		"/>
		<path id="XMLID_121_" class="st0" d="M172.1,79.88c11.61-19.99,16.97-38.22,20.54-55.95c-7.13,11.49-16.4,16.8-25.81,21.71
			c-3.59,9.94-7.19,19.88-10.79,29.82c-2.53,0-5.06,0-7.58,0c0-1.51,0-3.02,0-4.52c1.46,0,2.92,0,4.38,0
			c1.47,0.51,13.49-40.38,14.33-42.06c-11.07,14.92-31.1,24.75-45.51,22.84c2.46,10.12,6.8,19.43,12.76,28.17
			C146.99,79.88,159.54,79.88,172.1,79.88z"/>
		<rect id="XMLID_120_" x="163.58" y="83.45" class="st0" width="7.22" height="2.64"/>
		<rect id="XMLID_119_" x="143.48" y="83.45" class="st0" width="7.22" height="2.64"/>
		<polygon id="XMLID_118_" class="st0" points="149.75,105.87 156.97,105.87 160.01,88.73 152.78,88.73 		"/>
		<rect id="XMLID_117_" x="74.36" y="83.45" class="st0" width="7.23" height="2.64"/>
		<rect id="XMLID_116_" x="149.64" y="110.58" class="st0" width="7.23" height="7.91"/>
		<polygon id="XMLID_115_" class="st0" points="159.8,105.87 167.02,105.87 170.05,88.73 162.83,88.73 		"/>
		<polygon id="XMLID_114_" class="st0" points="186.7,78.16 180.61,78.16 169.74,101.86 175.82,101.86 		"/>
		<path id="XMLID_113_" class="st0" d="M113.46,79.88c4.77,0,9.54,0,14.32,0c-5.86-9.94-8.81-22.4-11.4-37.12
			c-1.36,6.24-1.82,8.75-2.92,12.86c-1.1-4.11-1.56-6.62-2.92-12.86c-2.59,14.71-5.54,27.18-11.4,37.12
			C103.92,79.88,108.69,79.88,113.46,79.88z"/>
		<polygon id="XMLID_112_" class="st0" points="78.14,105.87 85.37,105.87 82.34,88.73 75.11,88.73 		"/>
		<rect id="XMLID_111_" x="97.04" y="88.49" class="st0" width="5.45" height="30"/>
		<polygon id="XMLID_110_" class="st0" points="43.2,98.46 33.75,78.16 27.67,78.16 37.11,98.46 		"/>
		<path id="XMLID_109_" class="st0" d="M59.72,28.83c0.01,0.01,0.03,0.04,0.04,0.05C59.74,28.84,59.73,28.82,59.72,28.83z"/>
		<path id="XMLID_108_" class="st0" d="M29.01,30.52C16.98,24.95,7.27,14.86,0,0c4.29,27.16,15.01,50.04,25.44,73.1
			c7.09,0,14.19,0,21.29,0C39.33,59.96,33.9,45.42,29.01,30.52z"/>
		<polygon id="XMLID_107_" class="st0" points="184.52,118.49 189.92,102.56 171.97,118.49 		"/>
		<path id="XMLID_106_" class="st0" d="M92.5,79.88c5.97-8.74,10.31-18.04,12.76-28.17c-14.4,1.91-34.43-7.92-45.5-22.84
			c0.83,1.68,12.86,42.57,14.33,42.06c1.46,0,2.92,0,4.38,0c0,1.5,0,3.01,0,4.52c-2.53,0-5.05,0-7.58,0
			c-3.59-9.94-7.19-19.88-10.78-29.82c-9.41-4.91-18.68-10.22-25.81-21.71c3.57,17.73,8.92,35.97,20.54,55.95
			C67.39,79.88,79.94,79.88,92.5,79.88z"/>
		<rect id="XMLID_105_" x="88.3" y="110.58" class="st0" width="7.22" height="7.91"/>
		<rect id="XMLID_104_" x="139.59" y="110.58" class="st0" width="7.23" height="7.91"/>
		<polygon id="XMLID_103_" class="st0" points="181.87,98.46 187.95,98.46 197.4,78.16 191.31,78.16 		"/>
		<rect id="XMLID_102_" x="68.2" y="110.58" class="st0" width="7.22" height="7.91"/>
		<rect id="XMLID_101_" x="78.25" y="110.58" class="st0" width="7.23" height="7.91"/>
		<polygon id="XMLID_100_" class="st0" points="35.14,102.56 40.55,118.49 53.1,118.49 		"/>
		<polygon id="XMLID_99_" class="st0" points="95.41,105.87 92.39,88.73 85.16,88.73 88.19,105.87 		"/>
		<rect id="XMLID_98_" x="84.41" y="83.45" class="st0" width="7.23" height="2.64"/>
	</g>
	<g id="XMLID_87_">
		<path id="XMLID_96_" class="st1" d="M102.01,145.22h-2.96v6.11h2.96c2,0,3.36-0.38,4.08-1.14c0.53-0.55,0.86-1.19,1-1.92
			c-0.14-0.73-0.47-1.37-1-1.92C105.37,145.6,104,145.22,102.01,145.22z"/>
		<polygon id="XMLID_95_" class="st0" points="179.15,166.04 179.15,165.97 179.08,165.97 		"/>
		<rect id="XMLID_94_" x="141.94" y="165.97" class="st0" width="10.84" height="0.03"/>
		<g id="XMLID_88_">
			<path id="XMLID_93_" class="st0" d="M70.27,151.91c0,1.92-0.52,3.4-1.57,4.44c-1.05,1.05-2.49,1.57-4.33,1.57
				c-1.86,0-3.31-0.53-4.36-1.59c-1.04-1.06-1.57-2.53-1.57-4.42v-13.72H47.77v13.23c0,1.7,0.33,3.65,0.99,5.86
				c0.41,1.36,1.17,2.7,2.28,3.98c1.11,1.29,2.33,2.28,3.67,2.98c1.34,0.7,3,1.17,4.99,1.4c1.99,0.24,3.83,0.36,5.51,0.36
				c2.91,0,5.41-0.39,7.48-1.16c1.5-0.55,2.92-1.5,4.28-2.87c1.36-1.36,2.36-2.95,3-4.77c0.64-1.82,0.95-3.75,0.95-5.79v-13.23
				H70.27V151.91z"/>
			<rect id="XMLID_92_" x="122.55" y="138.52" class="st0" width="10.84" height="27.48"/>
			<rect id="XMLID_91_" x="141.94" y="138.82" class="st0" width="10.84" height="27.15"/>
			<polygon id="XMLID_90_" class="st0" points="162.57,150.96 178.65,138.82 164.3,138.82 152.78,147.53 152.78,158.36 
				155.12,156.59 165.48,165.97 179.08,165.97 			"/>
			<path id="XMLID_89_" class="st0" d="M117.37,146.23c-0.36-2.18-1.25-3.94-2.67-5.27c-1.94-1.84-4.83-2.77-8.71-2.77H88.21V166
				h10.83v-7.64h6.95c3.88,0,6.77-0.91,8.71-2.75c1.41-1.35,2.3-3.11,2.67-5.29c0.12-0.67,0.16-1.35,0.16-2.04
				C117.53,147.6,117.49,146.92,117.37,146.23z M106.11,150.17c0,0.02-0.02,0.02-0.02,0.02c-0.73,0.77-2.08,1.13-4.08,1.13h-2.97
				v-6.1h2.97c2,0,3.35,0.38,4.08,1.13l0.02,0.02c0.02,0.02,0.04,0.04,0.04,0.06c0.95,1.05,0.93,2.69-0.02,3.72L106.11,150.17z"/>
		</g>
	</g>
	<g id="XMLID_74_">
		<path id="XMLID_86_" class="st0" d="M56.42,122.57l-2.26,8.02l-2.3-8.02h-2.32l-2.26,8.02l-2.28-8.02h-2.57l3.56,10.53h2.43
			l2.24-7.6l2.22,7.6h2.45l3.56-10.53H56.42z"/>
		<path id="XMLID_85_" class="st0" d="M65.03,122.57h-2.45l-4.57,10.53h2.45l0.83-2.04h4.87l0.83,2.04h2.55L65.03,122.57z
			 M62.08,129.13l1.68-4.08l1.64,4.08H62.08z"/>
		<path id="XMLID_84_" class="st0" d="M77.54,129.62c0.65-0.3,1.13-0.73,1.48-1.31c0.32-0.59,0.49-1.27,0.49-2.08
			c0-1.15-0.36-2.06-1.11-2.69c-0.75-0.65-1.82-0.97-3.19-0.97h-4.57v10.53h2.38v-3.01h2.4l1.68,3.01h2.69L77.54,129.62z
			 M76.73,127.64c-0.36,0.3-0.87,0.46-1.54,0.46h-2.18v-3.56h2.18c0.67,0,1.17,0.14,1.54,0.44c0.34,0.3,0.53,0.73,0.53,1.31
			C77.25,126.89,77.07,127.34,76.73,127.64z"/>
		<path id="XMLID_83_" class="st0" d="M88.31,122.57v6.18c0,0.77-0.2,1.35-0.61,1.78c-0.42,0.44-0.97,0.65-1.66,0.65
			c-0.71,0-1.27-0.2-1.7-0.65c-0.44-0.44-0.65-1.03-0.65-1.78v-6.18h-2.38v6.18c0,0.93,0.2,1.72,0.59,2.4
			c0.36,0.67,0.93,1.19,1.64,1.56c0.71,0.36,1.54,0.55,2.49,0.55c0.95,0,1.78-0.18,2.49-0.55c0.71-0.36,1.23-0.89,1.62-1.56
			c0.36-0.69,0.57-1.48,0.57-2.4v-6.18H88.31z"/>
		<path id="XMLID_82_" class="st0" d="M100.09,122.57v6.79l-5.11-6.79h-2.16v10.53h2.26v-6.77l5.11,6.77h2.16v-10.53H100.09z"/>
		<path id="XMLID_81_" class="st0" d="M111.71,127.78v2.81c-0.32,0.18-0.69,0.32-1.05,0.44c-0.34,0.1-0.69,0.14-0.99,0.14
			c-0.63,0-1.17-0.14-1.68-0.44c-0.51-0.28-0.91-0.69-1.21-1.21c-0.28-0.51-0.44-1.09-0.44-1.7c0-0.63,0.14-1.19,0.44-1.7
			c0.28-0.51,0.69-0.91,1.19-1.19c0.51-0.3,1.07-0.44,1.68-0.44c0.51,0,1.01,0.1,1.54,0.32c0.51,0.2,0.95,0.49,1.35,0.87l1.33-1.7
			c-0.55-0.49-1.19-0.87-1.94-1.15s-1.5-0.42-2.28-0.42c-1.07,0-2.04,0.24-2.93,0.71c-0.87,0.46-1.56,1.11-2.06,1.94
			c-0.51,0.83-0.75,1.76-0.75,2.77c0,1.03,0.24,1.94,0.73,2.77c0.51,0.83,1.17,1.48,2.02,1.96c0.85,0.46,1.8,0.71,2.85,0.71
			c0.73,0,1.48-0.12,2.26-0.38c0.77-0.24,1.46-0.59,2-0.99v-4.1H111.71z"/>
		<path id="XMLID_80_" class="st0" d="M126.95,123.54c-0.75-0.65-1.78-0.97-3.11-0.97h-4.47v10.53h2.36v-3.01h2.1
			c1.33,0,2.36-0.34,3.09-1.01c0.75-0.69,1.11-1.62,1.11-2.85C128.04,125.07,127.68,124.16,126.95,123.54z M125.25,127.64
			c-0.36,0.3-0.87,0.46-1.54,0.46h-1.98v-3.56h1.98c0.67,0,1.17,0.14,1.54,0.44c0.36,0.3,0.53,0.73,0.53,1.31
			C125.78,126.89,125.61,127.34,125.25,127.64z"/>
		<path id="XMLID_79_" class="st0" d="M134.63,122.57h-2.47l-4.57,10.53h2.45l0.83-2.04h4.87l0.83,2.04h2.55L134.63,122.57z
			 M131.66,129.13l1.68-4.08l1.64,4.08H131.66z"/>
		<path id="XMLID_78_" class="st0" d="M149.5,125.11c-0.46-0.81-1.11-1.41-1.96-1.88c-0.85-0.44-1.8-0.67-2.87-0.67h-4.47v10.53
			h4.37c1.09,0,2.08-0.22,2.93-0.67c0.85-0.44,1.52-1.07,1.98-1.88c0.49-0.79,0.73-1.7,0.73-2.71
			C150.21,126.81,149.97,125.9,149.5,125.11z M147.4,129.54c-0.26,0.49-0.63,0.87-1.09,1.13c-0.49,0.28-0.99,0.42-1.58,0.42h-2.14
			v-6.53h2.04c0.59,0,1.13,0.14,1.62,0.42c0.46,0.26,0.85,0.67,1.11,1.15c0.28,0.51,0.42,1.07,0.42,1.7
			C147.78,128.49,147.64,129.03,147.4,129.54z"/>
		<path id="XMLID_77_" class="st0" d="M157.28,122.57h-2.45l-4.57,10.53h2.45l0.83-2.04h4.87l0.83,2.04h2.55L157.28,122.57z
			 M154.33,129.13l1.68-4.08l1.64,4.08H154.33z"/>
		<path id="XMLID_76_" class="st0" d="M170.16,122.57v6.79l-5.11-6.79h-2.16v10.53h2.26v-6.77l5.09,6.77h2.16v-10.53H170.16z"/>
		<path id="XMLID_75_" class="st0" d="M181.78,127.78v2.81c-0.34,0.18-0.69,0.32-1.05,0.44c-0.34,0.1-0.69,0.14-1.01,0.14
			c-0.61,0-1.15-0.14-1.68-0.44c-0.49-0.28-0.89-0.69-1.19-1.21c-0.28-0.51-0.44-1.09-0.44-1.7c0-0.63,0.14-1.19,0.44-1.7
			c0.28-0.51,0.69-0.91,1.19-1.19c0.51-0.3,1.05-0.44,1.68-0.44c0.51,0,1.01,0.1,1.54,0.32c0.51,0.2,0.95,0.49,1.33,0.87l1.35-1.7
			c-0.55-0.49-1.19-0.87-1.94-1.15c-0.75-0.28-1.52-0.42-2.28-0.42c-1.07,0-2.04,0.24-2.93,0.71c-0.87,0.46-1.56,1.11-2.06,1.94
			c-0.51,0.83-0.75,1.76-0.75,2.77c0,1.03,0.24,1.94,0.73,2.77c0.49,0.83,1.17,1.48,2.02,1.96c0.85,0.46,1.8,0.71,2.85,0.71
			c0.73,0,1.48-0.12,2.26-0.38c0.77-0.24,1.46-0.59,2-0.99v-4.1H181.78z"/>
	</g>
	<rect id="XMLID_73_" x="110.44" y="127.79" class="st0" width="2.63" height="1.91"/>
	<rect id="XMLID_72_" x="180.85" y="127.79" class="st0" width="2.63" height="1.91"/>
</g>
</svg>
