<?xml version="1.0" encoding="utf-8"?>
<!-- Generator: Adobe Illustrator 26.0.1, SVG Export Plug-In . SVG Version: 6.00 Build 0)  -->
<svg version="1.0" id="Layer_1" xmlns="http://www.w3.org/2000/svg" xmlns:xlink="http://www.w3.org/1999/xlink" x="0px" y="0px"
	 viewBox="0 0 72.86 72.86" style="enable-background:new 0 0 72.86 72.86;" xml:space="preserve">
<style type="text/css">
	.st0{fill-rule:evenodd;clip-rule:evenodd;fill:#FAC300;}
	.st1{fill-rule:evenodd;clip-rule:evenodd;fill:#E50013;}
</style>
<g>
	<path class="st0" d="M72.86,36.43c0,20.12-16.31,36.43-36.43,36.43C16.31,72.86,0,56.55,0,36.43C0,16.31,16.31,0,36.43,0
		C56.55,0,72.86,16.31,72.86,36.43z"/>
	<path class="st1" d="M37.88,45.04h-1.66h-1.66v0.83h1.66h1.66V45.04L37.88,45.04z M50.99,47.65c0.11-0.07,0.24-0.1,0.38-0.1
		c0.11,0,0.23,0.02,0.34,0.07c0.11,0.05,0.22,0.11,0.31,0.2l0.3-0.38c-0.12-0.11-0.27-0.2-0.44-0.26c-0.17-0.06-0.34-0.1-0.52-0.1
		c-0.24,0-0.46,0.05-0.66,0.16c-0.2,0.11-0.35,0.25-0.47,0.44c-0.11,0.19-0.17,0.39-0.17,0.62c0,0.23,0.06,0.44,0.17,0.63
		c0.11,0.19,0.26,0.33,0.45,0.44c0.19,0.11,0.41,0.16,0.64,0.16c0.16,0,0.33-0.03,0.51-0.09c0.18-0.06,0.33-0.13,0.45-0.23V48.3
		h-0.08h-0.38h-0.21v0.43h0.21v0.2c-0.08,0.04-0.16,0.07-0.24,0.1c-0.08,0.02-0.16,0.04-0.23,0.04c-0.14,0-0.26-0.03-0.38-0.1
		c-0.11-0.07-0.2-0.16-0.27-0.27c-0.07-0.12-0.1-0.25-0.1-0.39c0-0.14,0.03-0.27,0.1-0.38C50.78,47.81,50.87,47.72,50.99,47.65
		L50.99,47.65z M48.08,47.97l1.15,1.52h0.49v-2.37h-0.51v1.53l-1.15-1.53h-0.49v2.37h0.51V47.97L48.08,47.97z M46.02,47.68
		l0.37,0.92h-0.75L46.02,47.68L46.02,47.68z M45.47,49.03h1.1l0.19,0.46h0.57l-1.01-2.37h-0.55l-1.03,2.37h0.55L45.47,49.03
		L45.47,49.03z M42.99,47.57h0.46c0.14,0,0.26,0.03,0.36,0.09c0.11,0.06,0.19,0.15,0.25,0.26c0.06,0.11,0.09,0.24,0.09,0.38
		c0,0.14-0.03,0.27-0.09,0.38c-0.06,0.11-0.14,0.2-0.24,0.26c-0.11,0.06-0.22,0.09-0.36,0.09h-0.48V47.57L42.99,47.57z M44.1,49.34
		c0.19-0.1,0.34-0.24,0.45-0.42c0.11-0.18,0.16-0.39,0.16-0.61c0-0.23-0.05-0.43-0.16-0.61c-0.11-0.18-0.25-0.32-0.44-0.42
		c-0.19-0.1-0.41-0.15-0.65-0.15h-1.01v2.37h0.98C43.69,49.49,43.91,49.44,44.1,49.34L44.1,49.34z M40.53,48.6l0.38-0.92l0.37,0.92
		H40.53L40.53,48.6z M40.65,47.12l-1.03,2.37h0.55l0.19-0.46h1.1l0.19,0.46h0.57l-1.01-2.37H40.65L40.65,47.12z M38.3,48.37v-0.8
		h0.44c0.15,0,0.27,0.03,0.35,0.1c0.08,0.07,0.12,0.16,0.12,0.3c0,0.13-0.04,0.23-0.12,0.3c-0.08,0.07-0.2,0.1-0.35,0.1H38.3
		L38.3,48.37z M39.47,48.59c-0.17,0.15-0.4,0.23-0.7,0.23H38.3v0.68h-0.53v-2.37h1.01c0.3,0,0.54,0.07,0.7,0.21
		c0.16,0.14,0.25,0.35,0.25,0.61C39.72,48.22,39.63,48.44,39.47,48.59L39.47,48.59z M35.19,47.65c0.11-0.07,0.24-0.1,0.38-0.1
		c0.12,0,0.23,0.02,0.35,0.07c0.12,0.05,0.22,0.11,0.3,0.2l0.3-0.38c-0.12-0.11-0.27-0.2-0.44-0.26c-0.17-0.06-0.34-0.1-0.52-0.1
		c-0.24,0-0.46,0.05-0.66,0.16c-0.2,0.11-0.35,0.25-0.47,0.44c-0.11,0.19-0.17,0.39-0.17,0.62c0,0.23,0.06,0.44,0.17,0.63
		c0.11,0.19,0.26,0.33,0.45,0.44c0.19,0.11,0.41,0.16,0.64,0.16c0.16,0,0.33-0.03,0.51-0.09c0.18-0.06,0.33-0.13,0.45-0.23V48.3
		h-0.16h-0.31h-0.29v0.43h0.29v0.2c-0.08,0.04-0.15,0.07-0.24,0.1c-0.08,0.02-0.16,0.04-0.23,0.04c-0.14,0-0.26-0.03-0.38-0.1
		c-0.11-0.07-0.2-0.16-0.27-0.27c-0.07-0.12-0.1-0.25-0.1-0.39c0-0.14,0.03-0.27,0.1-0.38C34.99,47.81,35.08,47.72,35.19,47.65
		L35.19,47.65z M32.29,47.97l1.15,1.52h0.49v-2.37h-0.51v1.53l-1.15-1.53h-0.49v2.37h0.51V47.97L32.29,47.97z M31.17,49.06
		c0.08-0.15,0.13-0.33,0.13-0.54v-1.39h-0.54v1.39c0,0.17-0.05,0.31-0.14,0.4c-0.09,0.1-0.22,0.15-0.37,0.15
		c-0.16,0-0.29-0.05-0.38-0.15c-0.1-0.1-0.14-0.23-0.14-0.4v-1.39h-0.54v1.39c0,0.21,0.04,0.39,0.13,0.54
		c0.09,0.15,0.21,0.27,0.37,0.35c0.16,0.08,0.35,0.12,0.56,0.12s0.4-0.04,0.56-0.12C30.96,49.33,31.08,49.21,31.17,49.06
		L31.17,49.06z M27.31,47.57h0.49c0.15,0,0.26,0.03,0.34,0.1c0.08,0.07,0.12,0.17,0.12,0.3c0,0.13-0.04,0.23-0.12,0.3
		c-0.08,0.07-0.19,0.1-0.34,0.1h-0.49V47.57L27.31,47.57z M27.31,48.82h0.49h0.05l0.38,0.68h0.61l-0.51-0.78
		c0.15-0.07,0.26-0.17,0.33-0.3c0.08-0.13,0.11-0.29,0.11-0.47c0-0.26-0.09-0.46-0.25-0.61c-0.17-0.14-0.41-0.22-0.72-0.22h-1.03
		v2.37h0.54V48.82L27.31,48.82z M25.22,47.68l0.37,0.92h-0.75L25.22,47.68L25.22,47.68z M24.48,49.49l0.19-0.46h1.1l0.19,0.46h0.57
		l-1.01-2.37h-0.55l-1.03,2.37H24.48L24.48,49.49z M22.27,47.78l-0.5,1.71h-0.55l-0.8-2.37h0.58l0.52,1.81l0.51-1.81h0.52l0.52,1.81
		l0.51-1.81h0.55l-0.8,2.37h-0.55L22.27,47.78L22.27,47.78z M34.77,53.35C34.77,53.35,34.77,53.35,34.77,53.35
		c-0.17,0.17-0.47,0.26-0.92,0.26h-0.67v-1.38h0.67c0.45,0,0.76,0.09,0.92,0.26c0,0,0,0,0,0C35,52.73,35,53.11,34.77,53.35
		L34.77,53.35z M36.71,51.27c-0.43-0.42-1.09-0.62-1.96-0.62h-4.01v0.08v2.01v0.37v2.09v1.72h2.44v-1.72h1.57
		c0.87,0,1.53-0.21,1.96-0.62c0.32-0.3,0.52-0.7,0.61-1.19c0.03-0.15,0.03-0.31,0.03-0.46c0-0.15-0.01-0.31-0.03-0.46
		C37.23,51.97,37.03,51.57,36.71,51.27L36.71,51.27z M51.13,50.79h-3.23l-2.6,1.96v-1.96h-2.44v6.12v0.01h2.44v-0.01v-1.71l0.53-0.4
		l2.34,2.11h3.07l-3.72-3.38L51.13,50.79L51.13,50.79z M38.48,56.91h2.44v-6.19h-2.44V56.91L38.48,56.91z M26.69,53.74
		c0,0.43-0.12,0.77-0.35,1c-0.24,0.24-0.56,0.35-0.98,0.35c-0.42,0-0.74-0.12-0.98-0.36c-0.23-0.24-0.35-0.57-0.35-1v-3.09h-2.41
		v2.98c0,0.38,0.08,0.82,0.22,1.32c0.09,0.31,0.26,0.61,0.51,0.9c0.25,0.29,0.53,0.51,0.83,0.67c0.3,0.16,0.68,0.26,1.12,0.32
		c0.45,0.05,0.86,0.08,1.24,0.08c0.66,0,1.22-0.09,1.69-0.26c0.34-0.12,0.66-0.34,0.97-0.64c0.31-0.31,0.53-0.66,0.68-1.08
		c0.14-0.41,0.21-0.84,0.21-1.31v-2.98h-2.41V53.74L26.69,53.74z M51.24,56.92l-0.02-0.02h0.02V56.92L51.24,56.92z M31.51,38.3
		h-1.63v0.6h1.63V38.3L31.51,38.3z M32.36,43.36l-0.68-3.87h-1.63l0.68,3.87H32.36L32.36,43.36z M18.77,42.61l1.22,3.59h2.83
		L18.77,42.61L18.77,42.61z M30.12,44.42h-1.63v1.78h1.63V44.42L30.12,44.42z M27.86,44.42h-1.63v1.78h1.63V44.42L27.86,44.42z
		 M51.85,41.69h1.37l2.13-4.58h-1.37L51.85,41.69L51.85,41.69z M43.95,44.42h-1.63v1.78h1.63V44.42L43.95,44.42z M32.39,44.42h-1.63
		v1.78h1.63V44.42L32.39,44.42z M31.7,37.5c1.35-1.97,2.33-4.07,2.88-6.35c-3.25,0.43-7.76-1.79-10.26-5.15
		c0.19,0.38,2.9,9.6,3.23,9.48h0.99v1.02h-1.71c-0.81-2.24-1.62-4.48-2.43-6.72c-2.12-1.11-4.21-2.3-5.82-4.89
		c0.8,4,2.01,8.11,4.63,12.61H31.7L31.7,37.5z M52.45,46.2l1.22-3.59l-4.05,3.59H52.45L52.45,46.2z M17.39,26.37
		c1.1,3.36,2.33,6.64,3.99,9.6h-4.8c-2.35-5.2-4.77-10.36-5.73-16.48C12.49,22.84,14.68,25.12,17.39,26.37L17.39,26.37z
		 M20.59,41.69h-1.37l-2.13-4.58h1.37L20.59,41.69L20.59,41.69z M33.95,39.44h-1.23v6.76h1.23V39.44L33.95,39.44z M28.47,43.36
		l-0.68-3.87h1.63l0.68,3.87H28.47L28.47,43.36z M36.43,37.5H33.2c1.32-2.24,1.99-5.05,2.57-8.37c0.31,1.41,0.41,1.97,0.66,2.9
		c0.25-0.93,0.35-1.49,0.66-2.9c0.58,3.32,1.25,6.13,2.57,8.37H36.43L36.43,37.5z M52.94,37.11l-2.45,5.34h-1.37l2.45-5.34H52.94
		L52.94,37.11z M46.88,43.36h1.63l0.68-3.87h-1.63L46.88,43.36L46.88,43.36z M46.22,44.42h-1.63v1.78h1.63V44.42L46.22,44.42z
		 M27.61,38.9h1.63v-0.6h-1.63V38.9L27.61,38.9z M44.61,43.36l0.68-3.87h1.63l-0.68,3.87H44.61L44.61,43.36z M43.2,38.9h1.63v-0.6
		H43.2V38.9L43.2,38.9z M49.36,38.3h-1.63v0.6h1.63V38.3L49.36,38.3z M49.65,37.5h-8.49c-1.34-1.97-2.32-4.07-2.88-6.35
		c3.25,0.43,7.76-1.79,10.26-5.15c-0.19,0.38-2.9,9.6-3.23,9.48h-0.99v1.02h1.71c0.81-2.24,1.62-4.48,2.43-6.72
		c2.12-1.11,4.21-2.3,5.82-4.89C53.48,28.88,52.27,32.99,49.65,37.5L49.65,37.5z M44.66,39.49h-1.63l-0.68,3.87h1.63L44.66,39.49
		L44.66,39.49z M42.56,38.3h-1.63v0.6h1.63V38.3L42.56,38.3z M42.39,39.49l-0.68,3.87h-1.63l0.68-3.87H42.39L42.39,39.49z
		 M40.06,46.2h1.63v-1.78h-1.63V46.2L40.06,46.2z M45.46,38.9h1.63v-0.6h-1.63V38.9L45.46,38.9z M24.71,38.3h-1.63v0.6h1.63V38.3
		L24.71,38.3z M25.57,43.36l-0.68-3.87h-1.63l0.68,3.87H25.57L25.57,43.36z M25.35,38.9h1.63v-0.6h-1.63V38.9L25.35,38.9z
		 M25.52,39.49l0.68,3.87h1.63l-0.68-3.87H25.52L25.52,39.49z M55.47,26.37c-1.1,3.36-2.32,6.64-3.99,9.6h4.8
		c2.35-5.2,4.77-10.36,5.73-16.48C60.37,22.84,58.18,25.12,55.47,26.37L55.47,26.37z M25.59,44.42h-1.63v1.78h1.63V44.42
		L25.59,44.42z M19.5,37.11h1.37l2.45,5.34h-1.37L19.5,37.11L19.5,37.11z M37.88,39.44h-1.66h-1.66v3.94h1.66h1.66V39.44
		L37.88,39.44z M39.71,38.3h-3.49h-3.49v0.6h3.49h3.49V38.3L39.71,38.3z M48.48,44.42h-1.63v1.78h1.63V44.42L48.48,44.42z
		 M39.71,39.44h-1.23v6.76h1.23V39.44L39.71,39.44z M37.88,43.96h-1.66h-1.66v0.83h1.66h1.66V43.96z"/>
</g>
</svg>
