<svg id="Layer_1" data-name="Layer 1" xmlns="http://www.w3.org/2000/svg" viewBox="0 0 14.45 19.12"><path d="M3.6,17.41a5.84,5.84,0,0,0-.66.15,15.73,15.73,0,0,0,3.8.37,6.28,6.28,0,0,1-.59-.43l-.05-.05a.83.83,0,0,0-.87-.24l-.25,0c-.35,0-.87.09-1.38.18Zm4.65.11c-.22.18-.4.31-.55.41a17.3,17.3,0,0,0,3.76-.39l-.53-.11c-.54-.09-1.13-.16-1.43-.19l-.28,0a.81.81,0,0,0-.83.21l-.14.1ZM6.77,3.75l-.12,0A3,3,0,0,0,4.81,5a2.76,2.76,0,0,0-.42,2.09l0,.06A3,3,0,0,0,5.54,8.92a2.79,2.79,0,0,0,2.2.5H7.8A3,3,0,0,0,9.62,8.18a2.86,2.86,0,0,0,.44-2.1L10,6A3,3,0,0,0,8.91,4.26a2.76,2.76,0,0,0-2.14-.51Zm-2.85.5A4.15,4.15,0,0,1,6.56,2.61l.08,0a3.94,3.94,0,0,1,3,.79,4.13,4.13,0,0,1,1.53,2.54V6a4,4,0,0,1-.71,3,4,4,0,0,1-2.63,1.62h0a4,4,0,0,1-3.11-.79A4.13,4.13,0,0,1,3.23,7.22v0a3.92,3.92,0,0,1,.69-2.95ZM6.36,16.16l-.05,0A18.59,18.59,0,0,1,3,12.49,10.58,10.58,0,0,1,1.3,8.79a7,7,0,0,1-.15-1.42A6.33,6.33,0,0,1,2.5,3.42,5.92,5.92,0,0,1,6,1.29a6.48,6.48,0,0,1,1.26-.13,6.69,6.69,0,0,1,1.28.13,6,6,0,0,1,3.43,2.1A6.22,6.22,0,0,1,13.3,7.33a6.8,6.8,0,0,1-.16,1.46,9.73,9.73,0,0,1-1.23,3.05,16.34,16.34,0,0,1-2.42,3l-.19.17a2.46,2.46,0,0,0-.28.28,13.47,13.47,0,0,1-1,.9c-.3.25-.6.47-.79.6-.27-.18-.62-.47-.86-.67Zm-1.95,0,.18,0A20.59,20.59,0,0,1,1.68,12.7,10.11,10.11,0,0,1,0,7.32,7.55,7.55,0,0,1,.91,3.68,7.06,7.06,0,0,1,3.35,1.09,7.31,7.31,0,0,1,7.22,0a7.19,7.19,0,0,1,3.93,1.13,7,7,0,0,1,2.41,2.6,7.68,7.68,0,0,1,.89,3.63,9.91,9.91,0,0,1-1.68,5.34c-.27.41-.5.75-.75,1.07s-.49.62-.78,1c-.11.13-.37.39-.66.68s-.49.49-.67.69c.3,0,.61.06.91.11A8.2,8.2,0,0,1,12,16.5a3.56,3.56,0,0,1,.61.25,1,1,0,0,1,.47.48.89.89,0,0,1,0,.48c-.11.41-.57.72-1.27.93a11.07,11.07,0,0,1-2.4.4c-2.78.22-6.39-.07-7.52-.65a1.34,1.34,0,0,1-.5-.42.75.75,0,0,1,0-.81C1.76,16.48,3.41,16.27,4.41,16.14Z" fill="#fff000" fill-rule="evenodd"/></svg>