<svg id="Layer_1" data-name="Layer 1" xmlns="http://www.w3.org/2000/svg" viewBox="0 0 109.53 107.68"><path d="M109.48,1.45a1.59,1.59,0,0,0-.1-.39.06.06,0,0,1,0-.05,1.71,1.71,0,0,0-.25-.37L109,.55a1.34,1.34,0,0,0-.29-.23.15.15,0,0,1,0,0h-.06a1.05,1.05,0,0,0-.37-.17h0a.21.21,0,0,0-.12,0,2,2,0,0,0-.34-.06h-.13a2.36,2.36,0,0,0-.44.07l0,0a2.67,2.67,0,0,0-.39.18s0,0,0,0L83.36,15.59h0L30.18,29.82l-.13.06L1.9,28.39s0,0-.06,0a1.53,1.53,0,0,0-.42,0h0a1.38,1.38,0,0,0-.43.17l-.1.06a1.6,1.6,0,0,0-.3.23s0,0-.06.05l0,0a1.9,1.9,0,0,0-.25.35l0,0a.39.39,0,0,1,0,.06,1.65,1.65,0,0,0-.11.36s0,.07,0,.11a3.17,3.17,0,0,0,0,.43.24.24,0,0,1,0,.08.92.92,0,0,0,.09.39.44.44,0,0,0,0,.1,2.05,2.05,0,0,0,.23.4l29.4,39.1a40.07,40.07,0,0,0,1.29,8.3,39.12,39.12,0,1,0,75.57-20.25A41.39,41.39,0,0,0,103.81,51a1.31,1.31,0,0,0,.1-.4L109.52,2a2.44,2.44,0,0,0,0-.47l0-.1m-6.39,24.68-1.28,0,2-6.2Zm-.53,4.55-2.21.05L101,28.6l1.77-.05ZM102,35.22l-3.15.08.68-2.14,2.72-.06Zm-.51,4.55-4.11.11.7-2.14,3.67-.08ZM101,44.33l-5,.12.68-2.14,4.6-.11Zm-.48,4.24-.07,0,0,0-5.84.18.61-1.91,5.54-.15Zm-59.14-5.4L36.5,46.39,32.88,32.87l5.35-1.44Zm.35-12.67,31.91-8.56,2.83,10.58-16.78-1a1.71,1.71,0,0,0-1.1.29l-14,9.27Zm18.35,4.66,17.19,1L45.71,44.65ZM86.13,33.1l-5.85-.35L77.13,21l5.37-1.44ZM33.64,49.76a1.38,1.38,0,0,0,.16.37.34.34,0,0,0,.07.11,1,1,0,0,0,.15.22.47.47,0,0,0,.1.1,1.53,1.53,0,0,1,.18.18l.12.07.26.14.07,0h0a3.69,3.69,0,0,0,.39.1h.06a1.29,1.29,0,0,0,.34,0,.23.23,0,0,0,.09,0,1.51,1.51,0,0,1,.22,0L89,36.8l.16-.06a.33.33,0,0,0,.13-.06,1.15,1.15,0,0,0,.29-.15l0,0a2.5,2.5,0,0,0,.29-.27l0,0,0-.06a1.22,1.22,0,0,0,.16-.26.63.63,0,0,0,.07-.12,1.44,1.44,0,0,0,.08-.25.59.59,0,0,0,0-.13.9.9,0,0,0,0-.28.26.26,0,0,1,0-.12,3.06,3.06,0,0,0-.07-.4L85.89,18.25,104.42,6.13,90.71,48.93l-26.47.84a2.83,2.83,0,0,0-.42.06,1.8,1.8,0,0,0-.38.16L40.14,62.53,6.8,32.27l22.49,1.24ZM27.89,61.82l3.81-2.06,1.66,1.51-4.2,2.27Zm-2.75-3.65,3-1.65L29.8,58l-3.38,1.86ZM22.37,54.5l2.21-1.2,1.66,1.52-2.59,1.4Zm-2.75-3.66L21,50.07l1.66,1.51-1.79,1Zm-4.86-6.43,4.37,4-1,.53ZM31.81,67,30.64,65.5,35.25,63l1.51,1.39ZM78,102.83a35.53,35.53,0,0,1-43.48-25.1,37.2,37.2,0,0,1-1.15-7.43L64.77,53.38l35.6-1.11a34.17,34.17,0,0,1,2.75,7.09A35.52,35.52,0,0,1,78,102.83" fill="#ffcc0a"/><path d="M54.51,72a8.86,8.86,0,0,0-6.26,10.84,1.53,1.53,0,0,0,1.85,1.07,1.55,1.55,0,0,0,1.08-1.86,5.81,5.81,0,1,1,11.22-3,1.53,1.53,0,0,0,1.86,1.06,1.51,1.51,0,0,0,1.06-1.85A8.85,8.85,0,0,0,54.51,72" fill="#ffcc0a"/><path d="M83,64.39a8.85,8.85,0,0,0-6.26,10.83,1.51,1.51,0,1,0,2.91-.78,5.83,5.83,0,1,1,11.26-3,1.52,1.52,0,0,0,1.84,1.07,1.5,1.5,0,0,0,1.06-1.85A8.83,8.83,0,0,0,83,64.39" fill="#ffcc0a"/><path d="M109.48,1.45a1.59,1.59,0,0,0-.1-.39.06.06,0,0,1,0-.05,1.71,1.71,0,0,0-.25-.37L109,.55a1.34,1.34,0,0,0-.29-.23.15.15,0,0,1,0,0h-.06a1.05,1.05,0,0,0-.37-.17h0a.21.21,0,0,0-.12,0,2,2,0,0,0-.34-.06h-.13a2.36,2.36,0,0,0-.44.07l0,0a2.67,2.67,0,0,0-.39.18s0,0,0,0L83.36,15.59h0L30.18,29.82l-.13.06L1.9,28.39s0,0-.06,0a1.53,1.53,0,0,0-.42,0h0a1.38,1.38,0,0,0-.43.17l-.1.06a1.6,1.6,0,0,0-.3.23s0,0-.06.05l0,0a1.9,1.9,0,0,0-.25.35l0,0a.39.39,0,0,1,0,.06,1.65,1.65,0,0,0-.11.36s0,.07,0,.11a3.17,3.17,0,0,0,0,.43.24.24,0,0,1,0,.08.92.92,0,0,0,.09.39.44.44,0,0,0,0,.1,2.05,2.05,0,0,0,.23.4l29.4,39.1a40.07,40.07,0,0,0,1.29,8.3,39.12,39.12,0,1,0,75.57-20.25A41.39,41.39,0,0,0,103.81,51a1.31,1.31,0,0,0,.1-.4L109.52,2a2.44,2.44,0,0,0,0-.47l0-.1m-6.39,24.68-1.28,0,2-6.2Zm-.53,4.55-2.21.05L101,28.6l1.77-.05ZM102,35.22l-3.15.08.68-2.14,2.72-.06Zm-.51,4.55-4.11.11.7-2.14,3.67-.08ZM101,44.33l-5,.12.68-2.14,4.6-.11Zm-.48,4.24-.07,0,0,0-5.84.18.61-1.91,5.54-.15Zm-59.14-5.4L36.5,46.39,32.88,32.87l5.35-1.44Zm.35-12.67,31.91-8.56,2.83,10.58-16.78-1a1.71,1.71,0,0,0-1.1.29l-14,9.27Zm18.35,4.66,17.19,1L45.71,44.65ZM86.13,33.1l-5.85-.35L77.13,21l5.37-1.44ZM33.64,49.76a1.38,1.38,0,0,0,.16.37.34.34,0,0,0,.07.11,1,1,0,0,0,.15.22.47.47,0,0,0,.1.1,1.53,1.53,0,0,1,.18.18l.12.07.26.14.07,0h0a3.69,3.69,0,0,0,.39.1h.06a1.29,1.29,0,0,0,.34,0,.23.23,0,0,0,.09,0,1.51,1.51,0,0,1,.22,0L89,36.8l.16-.06a.33.33,0,0,0,.13-.06,1.15,1.15,0,0,0,.29-.15l0,0a2.5,2.5,0,0,0,.29-.27l0,0,0-.06a1.22,1.22,0,0,0,.16-.26.63.63,0,0,0,.07-.12,1.44,1.44,0,0,0,.08-.25.59.59,0,0,0,0-.13.9.9,0,0,0,0-.28.26.26,0,0,1,0-.12,3.06,3.06,0,0,0-.07-.4L85.89,18.25,104.42,6.13,90.71,48.93l-26.47.84a2.83,2.83,0,0,0-.42.06,1.8,1.8,0,0,0-.38.16L40.14,62.53,6.8,32.27l22.49,1.24ZM27.89,61.82l3.81-2.06,1.66,1.51-4.2,2.27Zm-2.75-3.65,3-1.65L29.8,58l-3.38,1.86ZM22.37,54.5l2.21-1.2,1.66,1.52-2.59,1.4Zm-2.75-3.66L21,50.07l1.66,1.51-1.79,1Zm-4.86-6.43,4.37,4-1,.53ZM31.81,67,30.64,65.5,35.25,63l1.51,1.39ZM78,102.83a35.53,35.53,0,0,1-43.48-25.1,37.2,37.2,0,0,1-1.15-7.43L64.77,53.38l35.6-1.11a34.17,34.17,0,0,1,2.75,7.09A35.52,35.52,0,0,1,78,102.83" fill="#ffcc0a"/></svg>