<svg id="Layer_1" data-name="Layer 1" xmlns="http://www.w3.org/2000/svg" viewBox="0 0 16.38 17.48"><path d="M9.77,2.78a.5.5,0,0,1,.13,0,.19.19,0,0,1,.08,0,6.18,6.18,0,0,1,2.12,1A6.28,6.28,0,1,1,9.77,2.78ZM13.92,14.2a8.69,8.69,0,0,0,1.66-2.87,7.94,7.94,0,0,0,.19-4,7.74,7.74,0,0,0-3.9-5.1A7.66,7.66,0,0,0,1,11.34a7.34,7.34,0,0,0,1.16,2.22,4.49,4.49,0,0,1,.47.64c0,.16-1.68,2.54-.89,3.17s2.41-.94,2.93-1.32c.12-.08.21-.2.37-.15a7.68,7.68,0,0,0,1.23.46,6.74,6.74,0,0,0,2,.26,6.9,6.9,0,0,0,2-.25c.3-.08.58-.17.85-.27.57-.22.43-.3.75-.07s2.29,1.85,3,1.35S14,14.5,13.92,14.2Z" fill="#fff000" fill-rule="evenodd"/><path d="M1,4.38a2.7,2.7,0,0,0,.36-.49A9.34,9.34,0,0,1,2.58,2.57a7.51,7.51,0,0,1,.92-.75c.52-.34.64-.36,1-.6A3.91,3.91,0,0,0,3.87.46C3.21-.19,2.68-.13,2,.49c-.25.22-.51.43-.75.65C.65,1.7.08,2,0,2.7S.64,4,1,4.38Z" fill="#fff000" fill-rule="evenodd"/><path d="M11.85,1.21A9,9,0,0,1,15,3.89a3.06,3.06,0,0,0,.35.49L16,3.67c1-1.26-.1-1.8-.87-2.54-.22-.22-.48-.42-.74-.64-.64-.55-1.2-.72-1.88,0A5.06,5.06,0,0,0,11.85,1.21Z" fill="#fff000" fill-rule="evenodd"/><path d="M8.07,4.07C7.92,4.44,8,7.49,8,8.22c0,.08-.35.13-.47.57a.79.79,0,0,0,1.09.89c.4-.19.29-.15.93-.16l2.16,0c.4,0,.66,0,.8-.27a.54.54,0,0,0-.26-.74C12,8.4,9.71,8.42,9.11,8.4s-.52-.07-.52-.59V4.52c0-.22,0-.32-.11-.43A.38.38,0,0,0,8.07,4.07Z" fill="#fff000" fill-rule="evenodd"/><path d="M10,2.85a.19.19,0,0,0-.08,0,.5.5,0,0,0-.13,0s0,0,.08,0A.61.61,0,0,0,10,2.85Z" fill="#fff000" fill-rule="evenodd"/></svg>