<?xml version="1.0" encoding="utf-8"?>
<!-- Generator: Adobe Illustrator 26.0.1, SVG Export Plug-In . SVG Version: 6.00 Build 0)  -->
<svg version="1.0" id="Layer_1" xmlns="http://www.w3.org/2000/svg" xmlns:xlink="http://www.w3.org/1999/xlink" x="0px" y="0px"
	 viewBox="0 0 360 286.87" style="enable-background:new 0 0 360 286.87;" xml:space="preserve">
<style type="text/css">
	.st0{fill:#FFCC0A;}
	.st1{fill:#E8262B;}
	.st2{fill:#E8262A;}
</style>
<path class="st0" d="M180.02,286.87c61.06,0,121.73-6.97,179.98-18.23V0H0v268.47C58.37,279.84,119.08,286.87,180.02,286.87"/>
<path class="st1" d="M0,248.66v11.97c58.37,11.37,119.08,18.41,180.02,18.41c61.06,0,121.73-6.97,179.98-18.24v-11.97
	c-58.25,11.27-118.92,18.24-179.98,18.24C119.08,267.07,58.37,260.03,0,248.66"/>
<polygon class="st2" points="253.89,223.55 253.89,223.48 253.81,223.48 "/>
<path class="st2" d="M181.39,195.33c-2.17-2.07-5.43-3.11-9.79-3.11h-20v0.38v10.05v1.82v10.44v8.59h12.19v-8.59h7.82
	c4.36,0,7.62-1.04,9.79-3.11c1.59-1.51,2.59-3.5,3.01-5.95c0.13-0.76,0.17-1.53,0.17-2.29c0-0.77-0.04-1.54-0.17-2.29
	C183.97,198.83,182.97,196.85,181.39,195.33 M171.72,205.71c-0.01,0.01-0.01,0.01-0.02,0.02c-0.82,0.85-2.35,1.27-4.6,1.27h-3.33
	v-6.86h3.33c2.25,0,3.78,0.42,4.6,1.27c0.01,0.01,0.01,0.01,0.02,0.02C172.84,202.61,172.84,204.53,171.72,205.71"/>
<rect x="212.03" y="223.48" class="st2" width="12.19" height="0.03"/>
<path class="st2" d="M131.42,207.66c0,2.16-0.59,3.83-1.77,5c-1.18,1.18-2.8,1.77-4.87,1.77c-2.09,0-3.72-0.6-4.9-1.79
	c-1.18-1.19-1.77-2.85-1.77-4.98v-15.44h-12v14.89c0,1.91,0.37,4.1,1.11,6.58c0.46,1.54,1.32,3.03,2.56,4.48
	c1.25,1.45,2.62,2.57,4.13,3.36c1.5,0.79,3.38,1.32,5.62,1.58c2.24,0.27,4.31,0.4,6.2,0.4c3.27,0,6.08-0.43,8.42-1.3
	c1.68-0.62,3.29-1.69,4.82-3.22c1.53-1.53,2.65-3.32,3.37-5.36c0.72-2.04,1.08-4.21,1.08-6.51v-14.89h-12V207.66z"/>
<rect x="190.22" y="192.61" class="st2" width="12.19" height="30.91"/>
<polygon class="st2" points="235.23,206.6 253.32,192.94 237.18,192.94 224.22,202.73 224.22,192.94 212.03,192.94 212.03,223.48 
	224.22,223.48 224.22,214.92 226.86,212.93 238.51,223.48 253.81,223.48 "/>
<polygon class="st2" points="187.25,164.27 178.95,164.27 170.65,164.27 170.65,168.41 178.95,168.41 187.25,168.41 "/>
<polygon class="st2" points="187.25,158.87 178.95,158.87 170.65,158.87 170.65,163.01 178.95,163.01 187.25,163.01 "/>
<rect x="190.26" y="136.32" class="st2" width="6.13" height="33.74"/>
<rect x="231.99" y="161.17" class="st2" width="8.13" height="8.9"/>
<polygon class="st2" points="196.39,130.65 178.95,130.65 161.52,130.65 161.52,133.62 178.95,133.62 196.39,133.62 "/>
<polygon class="st2" points="187.25,136.32 178.95,136.32 170.65,136.32 170.65,155.96 178.95,155.96 187.25,155.96 "/>
<polygon class="st2" points="95.53,124.71 107.77,151.36 114.61,151.36 102.37,124.71 "/>
<rect x="117.79" y="161.17" class="st2" width="8.13" height="8.9"/>
<path class="st2" d="M274.99,71.11c-5.49,16.77-11.6,33.11-19.92,47.9h23.95c11.73-25.95,23.78-51.68,28.61-82.23
	C299.46,53.5,288.53,64.85,274.99,71.11"/>
<polygon class="st2" points="125.55,136.58 128.96,155.87 137.09,155.87 133.69,136.58 "/>
<rect x="124.71" y="130.65" class="st2" width="8.13" height="2.97"/>
<polygon class="st2" points="125.79,155.87 122.38,136.58 114.25,136.58 117.66,155.87 "/>
<rect x="113.4" y="130.65" class="st2" width="8.13" height="2.97"/>
<rect x="225.07" y="130.65" class="st2" width="8.13" height="2.97"/>
<rect x="198.09" y="161.17" class="st2" width="8.13" height="8.9"/>
<polygon class="st2" points="209.75,136.58 201.62,136.58 198.21,155.87 206.34,155.87 "/>
<rect x="202.47" y="130.65" class="st2" width="8.13" height="2.97"/>
<path class="st2" d="M240.4,69.27c0.01-0.02,0.03-0.04,0.04-0.06C240.44,69.2,240.43,69.22,240.4,69.27"/>
<polygon class="st2" points="221.05,136.58 212.92,136.58 209.51,155.87 217.64,155.87 "/>
<path class="st2" d="M245.96,126.64c13.06-22.49,19.09-43,23.1-62.94c-8.02,12.93-18.45,18.9-29.03,24.43
	c-4.04,11.18-8.09,22.36-12.13,33.54h-8.53v-5.08h4.92c1.65,0.57,15.18-45.42,16.11-47.31c-12.45,16.78-34.98,27.83-51.19,25.69
	c2.76,11.39,7.65,21.85,14.36,31.69H245.96z"/>
<rect x="236.37" y="130.65" class="st2" width="8.13" height="2.97"/>
<rect x="213.77" y="130.65" class="st2" width="8.13" height="2.97"/>
<polygon class="st2" points="220.81,155.87 228.94,155.87 232.35,136.58 224.22,136.58 "/>
<rect x="136.01" y="130.65" class="st2" width="8.13" height="2.97"/>
<rect x="220.69" y="161.17" class="st2" width="8.13" height="8.9"/>
<polygon class="st2" points="232.12,155.87 240.25,155.87 243.65,136.58 235.52,136.58 "/>
<polygon class="st2" points="262.38,124.71 255.53,124.71 243.3,151.36 250.14,151.36 "/>
<path class="st2" d="M180,126.64h16.11c-6.59-11.19-9.91-25.2-12.82-41.75c-1.53,7.01-2.05,9.84-3.28,14.47
	c-1.24-4.62-1.75-7.45-3.29-14.47c-2.92,16.55-6.23,30.57-12.82,41.75H180z"/>
<polygon class="st2" points="140.27,155.87 148.4,155.87 144.98,136.58 136.86,136.58 "/>
<rect x="161.52" y="136.32" class="st2" width="6.13" height="33.74"/>
<polygon class="st2" points="100.96,147.54 90.33,124.7 83.49,124.7 94.12,147.54 "/>
<path class="st2" d="M119.55,69.21c0.01,0.02,0.03,0.04,0.04,0.06C119.57,69.22,119.55,69.2,119.55,69.21"/>
<path class="st2" d="M85,71.11C71.47,64.85,60.54,53.5,52.37,36.78c4.83,30.55,16.88,56.28,28.61,82.23h23.95
	C96.6,104.22,90.5,87.88,85,71.11"/>
<polygon class="st2" points="259.93,170.06 266,152.15 245.81,170.06 "/>
<path class="st2" d="M156.42,126.64c6.71-9.83,11.6-20.3,14.36-31.69c-16.2,2.15-38.73-8.9-51.19-25.69
	c0.94,1.89,14.47,47.88,16.12,47.31h4.93v5.08h-8.53c-4.04-11.18-8.09-22.36-12.13-33.54c-10.58-5.53-21.01-11.5-29.03-24.43
	c4.01,19.94,10.04,40.45,23.1,62.94H156.42z"/>
<rect x="151.69" y="161.17" class="st2" width="8.13" height="8.9"/>
<rect x="209.39" y="161.17" class="st2" width="8.13" height="8.9"/>
<polygon class="st2" points="256.95,147.54 263.78,147.54 274.41,124.7 267.57,124.7 "/>
<rect x="129.09" y="161.17" class="st2" width="8.13" height="8.9"/>
<rect x="140.39" y="161.17" class="st2" width="8.13" height="8.9"/>
<polygon class="st2" points="91.9,152.15 97.98,170.06 112.1,170.06 "/>
<polygon class="st2" points="159.7,155.87 156.29,136.58 148.16,136.58 151.57,155.87 "/>
<rect x="147.31" y="130.65" class="st2" width="8.13" height="2.97"/>
<polygon class="st2" points="109.33,177.96 111.82,186.49 114.57,186.49 118.58,174.66 115.82,174.66 113.29,183.69 110.7,174.66 
	108.08,174.66 105.53,183.69 102.96,174.66 100.09,174.66 104.08,186.49 106.81,186.49 "/>
<path class="st2" d="M120.39,186.49l0.93-2.3h5.48l0.93,2.3h2.86l-5.05-11.83h-2.76l-5.14,11.83H120.39z M124.07,177.45l1.86,4.6
	h-3.73L124.07,177.45z"/>
<path class="st2" d="M134.48,183.11h2.47h0.25l1.88,3.38h3.03l-2.52-3.9c0.72-0.34,1.27-0.83,1.65-1.48
	c0.38-0.65,0.57-1.43,0.57-2.34c0-1.31-0.42-2.32-1.27-3.03c-0.85-0.71-2.04-1.07-3.58-1.07h-5.14v11.83h2.67V183.11z
	 M134.48,176.88h2.47c0.74,0,1.32,0.17,1.72,0.5c0.4,0.33,0.6,0.83,0.6,1.48c0,0.66-0.2,1.17-0.6,1.51
	c-0.4,0.34-0.97,0.51-1.72,0.51h-2.47V176.88z"/>
<path class="st2" d="M153.74,184.3c0.42-0.76,0.63-1.66,0.63-2.7v-6.95h-2.67v6.95c0,0.86-0.23,1.53-0.69,2.01
	c-0.46,0.49-1.08,0.73-1.86,0.73c-0.8,0-1.44-0.24-1.92-0.74c-0.48-0.49-0.72-1.16-0.72-2v-6.95h-2.67v6.95
	c0,1.04,0.21,1.93,0.64,2.7c0.43,0.76,1.04,1.35,1.84,1.76c0.8,0.41,1.73,0.62,2.81,0.62c1.07,0,2-0.21,2.79-0.62
	C152.71,185.65,153.32,185.06,153.74,184.3"/>
<polygon class="st2" points="159.33,178.89 165.06,186.49 167.49,186.49 167.49,174.66 164.96,174.66 164.96,182.3 159.21,174.66 
	156.78,174.66 156.78,186.49 159.33,186.49 "/>
<path class="st2" d="M173.82,177.31c0.57-0.33,1.2-0.5,1.88-0.5c0.57,0,1.15,0.12,1.72,0.36c0.57,0.24,1.08,0.56,1.52,0.98l1.5-1.91
	c-0.61-0.54-1.33-0.97-2.17-1.28c-0.84-0.32-1.7-0.47-2.58-0.47c-1.21,0-2.3,0.27-3.29,0.79c-0.99,0.53-1.76,1.26-2.32,2.19
	c-0.56,0.93-0.85,1.96-0.85,3.1c0,1.15,0.28,2.19,0.83,3.12c0.55,0.93,1.31,1.66,2.27,2.2c0.96,0.54,2.03,0.8,3.21,0.8
	c0.81,0,1.66-0.14,2.54-0.43c0.88-0.29,1.63-0.66,2.27-1.12v-4.6h-2.32v0h-1.43v2.15h1.43v1.01c-0.38,0.2-0.78,0.36-1.18,0.48
	c-0.41,0.12-0.78,0.18-1.13,0.18c-0.69,0-1.31-0.17-1.88-0.5s-1.02-0.79-1.35-1.37c-0.33-0.58-0.5-1.22-0.5-1.92
	c0-0.7,0.16-1.33,0.49-1.9C172.8,178.09,173.25,177.64,173.82,177.31"/>
<path class="st2" d="M195.15,181.97c0.83-0.76,1.24-1.83,1.24-3.2c0-1.31-0.41-2.32-1.23-3.03c-0.82-0.72-1.99-1.07-3.5-1.07h-5.02
	v11.83h2.67v-3.38h2.35C193.16,183.11,194.32,182.73,195.15,181.97 M189.31,180.88v-4h2.21c0.76,0,1.33,0.17,1.73,0.5
	s0.6,0.83,0.6,1.48c0,0.67-0.2,1.17-0.6,1.51c-0.4,0.34-0.98,0.52-1.73,0.52H189.31z"/>
<path class="st2" d="M201.04,174.66l-5.14,11.83h2.76l0.93-2.3h5.48l0.93,2.3h2.86l-5.05-11.83H201.04z M200.46,182.05l1.88-4.6
	l1.86,4.6H200.46z"/>
<path class="st2" d="M218.28,185.74c0.96-0.5,1.7-1.2,2.24-2.1c0.54-0.9,0.8-1.92,0.8-3.07c0-1.15-0.26-2.17-0.79-3.07
	c-0.52-0.9-1.26-1.59-2.2-2.1c-0.95-0.5-2.02-0.75-3.23-0.75h-5.02v11.83H215C216.23,186.49,217.32,186.24,218.28,185.74
	 M212.75,176.91h2.3c0.68,0,1.28,0.16,1.82,0.46c0.54,0.31,0.96,0.75,1.27,1.31c0.31,0.56,0.46,1.2,0.46,1.91
	c0,0.71-0.15,1.34-0.44,1.89c-0.29,0.55-0.7,0.98-1.23,1.29c-0.52,0.31-1.11,0.46-1.77,0.46h-2.42V176.91z"/>
<path class="st2" d="M225.09,184.19h5.48l0.93,2.3h2.86l-5.05-11.83h-2.75l-5.14,11.83h2.75L225.09,184.19z M227.85,177.45l1.86,4.6
	h-3.73L227.85,177.45z"/>
<polygon class="st2" points="238.14,178.89 243.87,186.49 246.3,186.49 246.3,174.66 243.77,174.66 243.77,182.3 238.02,174.66 
	235.59,174.66 235.59,186.49 238.14,186.49 "/>
<path class="st2" d="M252.63,177.31c0.57-0.33,1.2-0.5,1.88-0.5c0.57,0,1.15,0.12,1.72,0.36c0.58,0.24,1.08,0.56,1.52,0.98l1.5-1.91
	c-0.61-0.54-1.33-0.97-2.17-1.28c-0.84-0.32-1.7-0.47-2.58-0.47c-1.21,0-2.3,0.27-3.29,0.79c-0.99,0.53-1.76,1.26-2.32,2.19
	c-0.56,0.93-0.85,1.96-0.85,3.1c0,1.15,0.28,2.19,0.83,3.12c0.55,0.93,1.31,1.66,2.27,2.2c0.96,0.54,2.03,0.8,3.21,0.8
	c0.81,0,1.66-0.14,2.54-0.43c0.88-0.29,1.63-0.66,2.26-1.12v-4.6h-2.32v0h-1.05v2.15h1.05v1.01c-0.38,0.2-0.78,0.36-1.18,0.48
	c-0.4,0.12-0.78,0.18-1.13,0.18c-0.69,0-1.32-0.17-1.88-0.5c-0.57-0.33-1.02-0.79-1.35-1.37c-0.33-0.58-0.5-1.22-0.5-1.92
	c0-0.7,0.16-1.33,0.49-1.9C251.61,178.09,252.06,177.64,252.63,177.31"/>
</svg>
